:FULLY-SPECIFIED
:FORCE-ALL-JOINTS-BE-3DOF
:DEGREES
1020
root 0.245668 13.5564 -35.3871 372.317 -28.028 342.252
lfemur -69.6487 35.5214 -3.70505
ltibia 81.0871 0 0
lfoot -11.7625 -9.07258 0
ltoes -4.71224 0 0
rfemur 9.75394 -8.87529 9.16865
rtibia 36.6546 0 0
rfoot -22.7254 -26.1489 0
rtoes -31.6147 0 0
lowerback 10.4779 -0.947959 5.84287
upperback -1.72976 0.0294952 8.2536
thorax -7.78314 -0.0794535 5.55992
lowerneck -4.59238 8.3088 3.4247
upperneck 7.72224 10.9628 -1.19465
head 3.59111 5.48354 -0.459391
lclavicle -4.25393e-14 -2.25176e-14 0
lhumerus 80.1829 -25.3835 28.6182
lradius 92.205 0 0
lwrist 12.9986 0 0
lhand -34.2059 32.941 0
lfingers 7.12502 0 0
lthumb -7.37787 62.7739 0
rclavicle -4.25393e-14 -2.25176e-14 0
rhumerus -77.4153 22.7208 -95.0014
rradius 112.041 0 0
rwrist -63.2819 0 0
rhand -10.0783 -25.4268 0
rfingers 7.12502 0 0
rthumb 15.9083 -54.7931 0
1021
root 0.245029 13.5526 -35.3791 372.316 -28.0454 342.269
lfemur -69.7172 35.6077 -3.77195
ltibia 81.2892 0 0
lfoot -11.9527 -9.00139 0
ltoes -4.90249 0 0
rfemur 9.84864 -8.85134 9.09079
rtibia 36.5867 0 0
rfoot -22.7159 -26.1584 0
rtoes -31.5852 0 0
lowerback 10.4318 -0.929967 5.77103
upperback -1.7508 0.0400441 8.23234
thorax -7.77954 -0.0713046 5.57432
lowerneck -4.62964 8.31015 3.42208
upperneck 7.74728 10.9616 -1.16746
head 3.60489 5.48367 -0.44793
lclavicle -4.44829e-14 -1.72385e-14 0
lhumerus 80.4214 -22.7735 28.7502
lradius 92.3234 0 0
lwrist 12.3721 0 0
lhand -34.414 32.5795 0
lfingers 7.12502 0 0
lthumb -7.57881 62.4063 0
rclavicle -4.44829e-14 -1.72385e-14 0
rhumerus -77.4407 22.7647 -95.0214
rradius 112.015 0 0
rwrist -63.2915 0 0
rhand -10.1033 -25.3707 0
rfingers 7.12502 0 0
rthumb 15.8842 -54.7389 0
1022
root 0.24439 13.5487 -35.371 372.314 -28.065 342.286
lfemur -69.7931 35.702 -3.84525
ltibia 81.5121 0 0
lfoot -12.1602 -8.92341 0
ltoes -5.10786 0 0
rfemur 9.95233 -8.82537 9.00493
rtibia 36.5123 0 0
rfoot -22.7051 -26.1676 0
rtoes -31.5544 0 0
lowerback 10.3824 -0.911363 5.6926
upperback -1.77363 0.0503614 8.21092
thorax -7.77602 -0.0629716 5.59224
lowerneck -4.67017 8.31193 3.41944
upperneck 7.77597 10.9608 -1.13824
head 3.62042 5.48404 -0.435553
lclavicle -4.66377e-14 -1.1557e-14 0
lhumerus 80.7593 -19.9638 28.8322
lradius 92.5118 0 0
lwrist 11.7085 0 0
lhand -34.6493 32.1967 0
lfingers 7.12502 0 0
lthumb -7.80594 62.0169 0
rclavicle -4.66377e-14 -1.1557e-14 0
rhumerus -77.4685 22.813 -95.0419
rradius 111.989 0 0
rwrist -63.2974 0 0
rhand -10.1285 -25.3118 0
rfingers 7.12502 0 0
rthumb 15.8599 -54.6819 0
1023
root 0.243751 13.5449 -35.363 372.312 -28.0868 342.303
lfemur -69.8766 35.8049 -3.92526
ltibia 81.7568 0 0
lfoot -12.3858 -8.83833 0
ltoes -5.32895 0 0
rfemur 10.0654 -8.79732 8.91069
rtibia 36.431 0 0
rfoot -22.6929 -26.1764 0
rtoes -31.5224 0 0
lowerback 10.3297 -0.892151 5.60731
upperback -1.79832 0.0604041 8.18938
thorax -7.77259 -0.0544616 5.6139
lowerneck -4.71409 8.31418 3.41678
upperneck 7.80849 10.9604 -1.10691
head 3.63779 5.48465 -0.422223
lclavicle -4.90138e-14 -5.45749e-15 0
lhumerus 81.2033 -16.9466 28.8602
lradius 92.7748 0 0
lwrist 11.0068 0 0
lhand -34.9131 31.792 0
lfingers 7.12502 0 0
lthumb -8.06062 61.605 0
rclavicle -4.90138e-14 -5.45749e-15 0
rhumerus -77.4988 22.8657 -95.0629
rradius 111.963 0 0
rwrist -63.2993 0 0
rhand -10.1539 -25.2501 0
rfingers 7.12502 0 0
rthumb 15.8354 -54.6222 0
